<?xml version="1.0" standalone="no"?><!DOCTYPE svg PUBLIC "-//W3C//DTD SVG 1.1//EN" "http://www.w3.org/Graphics/SVG/1.1/DTD/svg11.dtd"><svg t="1576672573400" class="icon" viewBox="0 0 1024 1024" version="1.1" xmlns="http://www.w3.org/2000/svg" p-id="3892" xmlns:xlink="http://www.w3.org/1999/xlink" width="64" height="64"><defs><style type="text/css"></style></defs><path d="M853.333333 170.666667H170.666667c-46.933333 0-85.333333 38.4-85.333334 85.333333v512c0 46.933333 38.4 85.333333 85.333334 85.333333h682.666666c46.933333 0 85.333333-38.4 85.333334-85.333333V256c0-46.933333-38.4-85.333333-85.333334-85.333333z m-17.066666 181.333333l-279.04 174.506667c-27.733333 17.493333-62.72 17.493333-90.453334 0L187.733333 352a36.266667 36.266667 0 1 1 38.4-61.44L512 469.333333l285.866667-178.773333a36.266667 36.266667 0 1 1 38.4 61.44z" p-id="3893"></path></svg>